<svg style="position: absolute; width: 0; height: 0;" width="0" height="0" version="1.1" xmlns="http://www.w3.org/2000/svg" xmlns:xlink="http://www.w3.org/1999/xlink">
<defs>
<symbol id="icon-arrows_move2" viewBox="0 0 32 32">
<title>arrows_move2</title>
<path class="path2" d="M0 32h32v-32h-32v32zM1 1h30v30h-30v-30z"></path>
</symbol>
<symbol id="icon-arrows_plus" viewBox="0 0 32 32">
<title>arrows_plus</title>
<path class="path1" d="M15.5 7v8.5h-8.5v1h8.5v8.5h1v-8.5h8.5v-1h-8.5v-8.5z"></path>
</symbol>
<symbol id="icon-arrows_question" viewBox="0 0 32 32">
<title>arrows_question</title>
<path class="path1" d="M16 0c-4.274 0-8.291 1.665-11.313 4.688-3.022 3.021-4.687 7.039-4.687 11.313s1.665 8.291 4.687 11.313c3.022 3.023 7.040 4.687 11.313 4.687s8.291-1.665 11.313-4.688c3.023-3.021 4.687-7.040 4.687-11.313s-1.665-8.291-4.687-11.313c-3.022-3.022-7.040-4.686-11.313-4.686zM26.607 26.606c-2.833 2.834-6.6 4.394-10.607 4.394s-7.774-1.561-10.607-4.395c-2.833-2.832-4.394-6.599-4.394-10.605s1.561-7.773 4.394-10.606c2.833-2.833 6.599-4.394 10.607-4.394s7.773 1.561 10.607 4.394c2.834 2.833 4.394 6.599 4.394 10.605s-1.561 7.773-4.394 10.606z"></path>
<path class="path2" d="M14.5 21.5h1v2h-1v-2z"></path>
<path class="path3" d="M16 7.5c-2.986 0-4.5 1.009-4.5 3h1c0-0.931 0.398-2 3.5-2 2.126 0 3.5 1.178 3.5 3 0 1.382-1.966 2.672-2.724 3.053-0.093 0.047-2.277 1.176-2.277 4.447v0.5h1v-0.5c0-2.63 1.656-3.518 1.723-3.553 0.134-0.067 3.276-1.665 3.276-3.947 0-2.355-1.851-4-4.5-4z"></path>
</symbol>
<symbol id="icon-arrows_right_double-31" viewBox="0 0 32 32">
<title>arrows_right_double-31</title>
<path class="path1" d="M15.146 7.854l8.146 8.146-8.146 8.146 0.78 0.707 8.573-8.5v-0.707l-8.573-8.5z"></path>
<path class="path2" d="M17 15.646l-8.573-8.5-0.744 0.707 8.129 8.146-8.155 8.146 0.775 0.707 8.569-8.5z"></path>
</symbol>
<symbol id="icon-arrows_rotate_anti_dashed" viewBox="0 0 32 32">
<title>arrows_rotate_anti_dashed</title>
<path class="path1" d="M15.5 0c-0.34 0-0.688 0.011-1.032 0.034l0.066 0.998c0.322-0.022 0.643-0.032 0.966-0.032v-1z"></path>
<path class="path2" d="M0.205 18.027l0.987-0.163c-0.109-0.659-0.172-1.334-0.188-2.005l-1 0.024c0.017 0.717 0.084 1.439 0.201 2.144z"></path>
<path class="path3" d="M0.015 14.806l0.999 0.045c0.030-0.669 0.107-1.343 0.229-2.002l-0.984-0.181c-0.13 0.704-0.212 1.424-0.244 2.139z"></path>
<path class="path4" d="M0.493 11.616l0.969 0.25c0.167-0.65 0.382-1.293 0.638-1.91l-0.925-0.382c-0.272 0.661-0.502 1.348-0.681 2.042z"></path>
<path class="path5" d="M3.922 24.216l1.474 1.474-0.707 0.707-1.474-1.474 0.707-0.707z"></path>
<path class="path6" d="M13.396 0.142c-0.71 0.097-1.419 0.244-2.107 0.438l0.271 0.963c0.645-0.181 1.308-0.319 1.972-0.409l-0.135-0.992z"></path>
<path class="path7" d="M10.263 0.907c-0.675 0.242-1.338 0.532-1.972 0.866l0.466 0.885c0.592-0.311 1.213-0.583 1.843-0.809l-0.337-0.942z"></path>
<path class="path8" d="M1.484 22.128c0.306 0.648 0.661 1.279 1.055 1.877l0.836-0.55c-0.368-0.559-0.7-1.149-0.986-1.755l-0.903 0.428z"></path>
<path class="path9" d="M1.621 8.593l0.895 0.445c0.297-0.598 0.641-1.182 1.021-1.736l-0.824-0.566c-0.406 0.591-0.774 1.216-1.093 1.857z"></path>
<path class="path10" d="M0.416 19.084c0.165 0.697 0.38 1.387 0.64 2.055l0.931-0.363c-0.244-0.624-0.445-1.27-0.599-1.922l-0.973 0.231z"></path>
<path class="path11" d="M7.883 3.158l-0.526-0.85c-0.609 0.377-1.197 0.8-1.747 1.258l0.639 0.768c0.514-0.428 1.064-0.824 1.635-1.176z"></path>
<path class="path12" d="M4.54 4.54c-0.42 0.42-0.82 0.867-1.187 1.33l0.783 0.622c0.344-0.433 0.718-0.851 1.112-1.246 0.082-0.082 0.165-0.162 0.248-0.242l-0.691-0.724c-0.090 0.085-0.178 0.172-0.266 0.26z"></path>
<path class="path13" d="M16.5 31v1c0.34 0 0.688-0.012 1.032-0.034l-0.066-0.998c-0.322 0.021-0.643 0.032-0.966 0.032z"></path>
<path class="path14" d="M30.942 10.862l-0.931 0.364c0.244 0.624 0.445 1.271 0.599 1.922l0.973-0.23c-0.165-0.697-0.38-1.388-0.64-2.055z"></path>
<path class="path15" d="M31.507 20.384l-0.968-0.25c-0.168 0.65-0.382 1.293-0.637 1.91l0.924 0.382c0.273-0.66 0.502-1.348 0.681-2.042z"></path>
<path class="path16" d="M30.808 14.136c0.109 0.659 0.172 1.334 0.188 2.005l1-0.023c-0.017-0.718-0.084-1.439-0.201-2.144l-0.986 0.163z"></path>
<path class="path17" d="M30.756 19.151l0.983 0.181c0.13-0.703 0.212-1.424 0.245-2.139l-0.999-0.045c-0.030 0.669-0.108 1.343-0.23 2.002z"></path>
<path class="path18" d="M24.643 29.692c0.61-0.378 1.197-0.8 1.747-1.258l-0.639-0.768c-0.514 0.427-1.064 0.823-1.634 1.176l0.526 0.851z"></path>
<path class="path19" d="M27.194 27.72c0.090-0.085 0.178-0.172 0.265-0.26 0.42-0.421 0.82-0.867 1.187-1.33l-0.783-0.622c-0.344 0.433-0.718 0.852-1.112 1.246-0.082 0.082-0.165 0.163-0.248 0.242l0.691 0.724z"></path>
<path class="path20" d="M30.38 23.407l-0.895-0.445c-0.297 0.598-0.641 1.182-1.021 1.736l0.824 0.567c0.407-0.591 0.774-1.216 1.093-1.857z"></path>
<path class="path21" d="M20.44 30.457c-0.645 0.181-1.308 0.319-1.972 0.409l0.136 0.991c0.709-0.097 1.419-0.244 2.107-0.438l-0.271-0.962z"></path>
<path class="path22" d="M23.243 29.341c-0.593 0.311-1.212 0.584-1.843 0.809l0.337 0.942c0.675-0.241 1.338-0.532 1.971-0.866l-0.465-0.885z"></path>
<path class="path23" d="M30.517 9.872c-0.306-0.648-0.662-1.279-1.055-1.877l-0.835 0.55c0.368 0.559 0.7 1.149 0.986 1.755l0.904-0.428z"></path>
<path class="path24" d="M28.079 7.782l-1.474-1.474 0.707-0.707 1.474 1.474-0.707 0.707z"></path>
<path class="path25" d="M1 27v1h5.5l0.5-0.5v-5.5h-1v4.586l-0.414 0.414z"></path>
<path class="path26" d="M25 4.5v5.5h1v-4.586l0.414-0.414h4.586v-1h-5.5z"></path>
</symbol>
<symbol id="icon-arrows_shrink_diagonal1" viewBox="0 0 32 32">
<title>arrows_shrink_diagonal1</title>
<path class="path1" d="M0.854 18.146l-0.707 0.707 13 13 0.707-0.707-6.146-6.146 6.293-6.293v4.293h1v-5.5l-0.5-0.5h-5.5v1h4.293l-6.293 6.293z"></path>
<path class="path2" d="M17 9v5.5l0.5 0.5h5.5v-1h-4.293l6.293-6.293 6.146 6.147 0.707-0.707-13-13-0.707 0.707 6.146 6.146-6.293 6.293v-4.293z"></path>
</symbol>
<symbol id="icon-arrows_sign_left" viewBox="0 0 32 32">
<title>arrows_sign_left</title>
<path class="path2" d="M17 9v5.5l0.5 0.5h5.5v-1h-4.293l6.293-6.293 6.146 6.147 0.707-0.707-13-13-0.707 0.707 6.146 6.146-6.293 6.293v-4.293z"></path>
</symbol>
<symbol id="icon-arrows_sign_right" viewBox="0 0 32 32">
<title>arrows_sign_right</title>
<path class="path1" d="M0 7v18h22.698l9.53-8.999-9.529-9.001h-22.698zM22.302 24h-21.302v-16h21.302l8.47 8.001-8.471 8z"></path>
</symbol>
<symbol id="icon-arrows_slide_right1" viewBox="0 0 32 32">
<title>arrows_slide_right1</title>
<path class="path1" d="M1 14h29.293l-3.646 3.646 0.78 0.707 4.573-4.5v-0.707l-4.573-4.5-0.744 0.707 3.61 3.646h-30.293v10h1z"></path>
</symbol>
<symbol id="icon-arrows_square_left" viewBox="0 0 32 32">
<title>arrows_square_left</title>
<path class="path1" d="M18.073 7.146l-8.573 8.5v0.707l8.573 8.5 0.744-0.707-8.129-8.146 8.119-8.146z"></path>
<path class="path2" d="M0 32h32v-32h-32v32zM1 1h30v30h-30v-30z"></path>
</symbol>
</defs>
</svg>
