<?xml version="1.0" encoding="utf-8"?>
<!-- Generated by IcoMoon.io -->
<!DOCTYPE svg PUBLIC "-//W3C//DTD SVG 1.1//EN" "http://www.w3.org/Graphics/SVG/1.1/DTD/svg11.dtd">
<svg version="1.1" xmlns="http://www.w3.org/2000/svg" xmlns:xlink="http://www.w3.org/1999/xlink" width="32" height="32" viewBox="0 0 32 32">
<path d="M15.5 0c-0.34 0-0.688 0.011-1.032 0.034l0.066 0.998c0.322-0.022 0.643-0.032 0.966-0.032v-1z"></path>
<path d="M0.205 18.027l0.987-0.163c-0.109-0.659-0.172-1.334-0.188-2.005l-1 0.024c0.017 0.717 0.084 1.439 0.201 2.144z"></path>
<path d="M0.015 14.806l0.999 0.045c0.030-0.669 0.107-1.343 0.229-2.002l-0.984-0.181c-0.13 0.704-0.212 1.424-0.244 2.139z"></path>
<path d="M0.493 11.616l0.969 0.25c0.167-0.65 0.382-1.293 0.638-1.91l-0.925-0.382c-0.272 0.661-0.502 1.348-0.681 2.042z"></path>
<path d="M3.922 24.216l1.474 1.474-0.707 0.707-1.474-1.474 0.707-0.707z"></path>
<path d="M13.396 0.142c-0.71 0.097-1.419 0.244-2.107 0.438l0.271 0.963c0.645-0.181 1.308-0.319 1.972-0.409l-0.135-0.992z"></path>
<path d="M10.263 0.907c-0.675 0.242-1.338 0.532-1.972 0.866l0.466 0.885c0.592-0.311 1.213-0.583 1.843-0.809l-0.337-0.942z"></path>
<path d="M1.484 22.128c0.306 0.648 0.661 1.279 1.055 1.877l0.836-0.55c-0.368-0.559-0.7-1.149-0.986-1.755l-0.903 0.428z"></path>
<path d="M1.621 8.593l0.895 0.445c0.297-0.598 0.641-1.182 1.021-1.736l-0.824-0.566c-0.406 0.591-0.774 1.216-1.093 1.857z"></path>
<path d="M0.416 19.084c0.165 0.697 0.38 1.387 0.64 2.055l0.931-0.363c-0.244-0.624-0.445-1.27-0.599-1.922l-0.973 0.231z"></path>
<path d="M7.883 3.158l-0.526-0.85c-0.609 0.377-1.197 0.8-1.747 1.258l0.639 0.768c0.514-0.428 1.064-0.824 1.635-1.176z"></path>
<path d="M4.54 4.54c-0.42 0.42-0.82 0.867-1.187 1.33l0.783 0.622c0.344-0.433 0.718-0.851 1.112-1.246 0.082-0.082 0.165-0.162 0.248-0.242l-0.691-0.724c-0.090 0.085-0.178 0.172-0.266 0.26z"></path>
<path d="M16.5 31v1c0.34 0 0.688-0.012 1.032-0.034l-0.066-0.998c-0.322 0.021-0.643 0.032-0.966 0.032z"></path>
<path d="M30.942 10.862l-0.931 0.364c0.244 0.624 0.445 1.271 0.599 1.922l0.973-0.23c-0.165-0.697-0.38-1.388-0.64-2.055z"></path>
<path d="M31.507 20.384l-0.968-0.25c-0.168 0.65-0.382 1.293-0.637 1.91l0.924 0.382c0.273-0.66 0.502-1.348 0.681-2.042z"></path>
<path d="M30.808 14.136c0.109 0.659 0.172 1.334 0.188 2.005l1-0.023c-0.017-0.718-0.084-1.439-0.201-2.144l-0.986 0.163z"></path>
<path d="M30.756 19.151l0.983 0.181c0.13-0.703 0.212-1.424 0.245-2.139l-0.999-0.045c-0.030 0.669-0.108 1.343-0.23 2.002z"></path>
<path d="M24.643 29.692c0.61-0.378 1.197-0.8 1.747-1.258l-0.639-0.768c-0.514 0.427-1.064 0.823-1.634 1.176l0.526 0.851z"></path>
<path d="M27.194 27.72c0.090-0.085 0.178-0.172 0.265-0.26 0.42-0.421 0.82-0.867 1.187-1.33l-0.783-0.622c-0.344 0.433-0.718 0.852-1.112 1.246-0.082 0.082-0.165 0.163-0.248 0.242l0.691 0.724z"></path>
<path d="M30.38 23.407l-0.895-0.445c-0.297 0.598-0.641 1.182-1.021 1.736l0.824 0.567c0.407-0.591 0.774-1.216 1.093-1.857z"></path>
<path d="M20.44 30.457c-0.645 0.181-1.308 0.319-1.972 0.409l0.136 0.991c0.709-0.097 1.419-0.244 2.107-0.438l-0.271-0.962z"></path>
<path d="M23.243 29.341c-0.593 0.311-1.212 0.584-1.843 0.809l0.337 0.942c0.675-0.241 1.338-0.532 1.971-0.866l-0.465-0.885z"></path>
<path d="M30.517 9.872c-0.306-0.648-0.662-1.279-1.055-1.877l-0.835 0.55c0.368 0.559 0.7 1.149 0.986 1.755l0.904-0.428z"></path>
<path d="M28.079 7.782l-1.474-1.474 0.707-0.707 1.474 1.474-0.707 0.707z"></path>
<path d="M1 27v1h5.5l0.5-0.5v-5.5h-1v4.586l-0.414 0.414z"></path>
<path d="M25 4.5v5.5h1v-4.586l0.414-0.414h4.586v-1h-5.5z"></path>
</svg>
