<?xml version="1.0" encoding="utf-8"?>
<!-- Generated by IcoMoon.io -->
<!DOCTYPE svg PUBLIC "-//W3C//DTD SVG 1.1//EN" "http://www.w3.org/Graphics/SVG/1.1/DTD/svg11.dtd">
<svg version="1.1" xmlns="http://www.w3.org/2000/svg" xmlns:xlink="http://www.w3.org/1999/xlink" width="32" height="32" viewBox="0 0 32 32">
<path d="M16 0c-4.274 0-8.291 1.665-11.313 4.688-3.022 3.021-4.687 7.039-4.687 11.313s1.665 8.291 4.687 11.313c3.022 3.023 7.040 4.687 11.313 4.687s8.291-1.665 11.313-4.688c3.023-3.021 4.687-7.040 4.687-11.313s-1.665-8.291-4.687-11.313c-3.022-3.022-7.040-4.686-11.313-4.686zM26.607 26.606c-2.833 2.834-6.6 4.394-10.607 4.394s-7.774-1.561-10.607-4.395c-2.833-2.832-4.394-6.599-4.394-10.605s1.561-7.773 4.394-10.606c2.833-2.833 6.599-4.394 10.607-4.394s7.773 1.561 10.607 4.394c2.834 2.833 4.394 6.599 4.394 10.605s-1.561 7.773-4.394 10.606z"></path>
<path d="M14.5 21.5h1v2h-1v-2z"></path>
<path d="M16 7.5c-2.986 0-4.5 1.009-4.5 3h1c0-0.931 0.398-2 3.5-2 2.126 0 3.5 1.178 3.5 3 0 1.382-1.966 2.672-2.724 3.053-0.093 0.047-2.277 1.176-2.277 4.447v0.5h1v-0.5c0-2.63 1.656-3.518 1.723-3.553 0.134-0.067 3.276-1.665 3.276-3.947 0-2.355-1.851-4-4.5-4z"></path>
</svg>
